<?xml version="1.0" encoding="UTF-8" standalone="no"?>
<!DOCTYPE svg PUBLIC "-//W3C//DTD SVG 1.1//EN"
 "http://www.w3.org/Graphics/SVG/1.1/DTD/svg11.dtd">
<!-- Generated by graphviz version 14.0.0 (20250921.2048)
 -->
<!-- Title: DG Pages: 1 -->
<svg width="153pt" height="188pt"
 viewBox="0.00 0.00 153.00 188.00" xmlns="http://www.w3.org/2000/svg" xmlns:xlink="http://www.w3.org/1999/xlink">
<g id="graph0" class="graph" transform="scale(1 1) rotate(0) translate(4 184)">
<title>DG</title>
<!-- A -->
<g id="node1" class="node">
<title>A</title>
<ellipse fill="none" stroke="black" stroke-width="4" cx="73" cy="-162" rx="27" ry="18"/>
</g>
<!-- B -->
<g id="node2" class="node">
<title>B</title>
<ellipse fill="none" stroke="black" stroke-width="4" cx="73" cy="-90" rx="27" ry="18"/>
</g>
<!-- A&#45;&gt;B -->
<g id="edge1" class="edge">
<title>A&#45;&gt;B</title>
<path fill="none" stroke="black" stroke-width="4" d="M73,-142.24C73,-137.14 73,-131.45 73,-125.77"/>
<polygon fill="black" stroke="black" stroke-width="4" points="76.5,-125.86 73,-115.86 69.5,-125.86 76.5,-125.86"/>
</g>
<!-- C -->
<g id="node3" class="node">
<title>C</title>
<ellipse fill="none" stroke="black" stroke-width="4" cx="27" cy="-18" rx="27" ry="18"/>
</g>
<!-- B&#45;&gt;C -->
<g id="edge2" class="edge">
<title>B&#45;&gt;C</title>
<path fill="none" stroke="black" stroke-width="4" d="M61.63,-71.7C57.17,-64.92 51.93,-56.93 46.88,-49.26"/>
<polygon fill="black" stroke="black" stroke-width="4" points="49.98,-47.6 41.56,-41.16 44.13,-51.44 49.98,-47.6"/>
</g>
<!-- D -->
<g id="node4" class="node">
<title>D</title>
<ellipse fill="none" stroke="black" stroke-width="4" cx="118" cy="-18" rx="27" ry="18"/>
</g>
<!-- B&#45;&gt;D -->
<g id="edge3" class="edge">
<title>B&#45;&gt;D</title>
<path fill="none" stroke="black" stroke-width="4" d="M84.12,-71.7C88.43,-65 93.49,-57.13 98.36,-49.54"/>
<polygon fill="black" stroke="black" stroke-width="4" points="101.27,-51.5 103.73,-41.2 95.38,-47.72 101.27,-51.5"/>
</g>
<!-- C&#45;&gt;A -->
<g id="edge4" class="edge">
<title>C&#45;&gt;A</title>
<path fill="none" stroke="black" stroke-width="4" d="M26.53,-37.66C26.64,-56.1 28.42,-84.81 37,-108 40.1,-116.37 44.79,-124.7 49.77,-132.19"/>
<polygon fill="black" stroke="black" stroke-width="4" points="46.79,-134.05 55.51,-140.08 52.46,-129.93 46.79,-134.05"/>
</g>
<!-- D&#45;&gt;A -->
<g id="edge5" class="edge">
<title>D&#45;&gt;A</title>
<path fill="none" stroke="black" stroke-width="4" d="M118.74,-37.65C118.87,-56.08 117.44,-84.79 109,-108 105.95,-116.39 101.28,-124.72 96.3,-132.22"/>
<polygon fill="black" stroke="black" stroke-width="4" points="93.61,-129.96 90.55,-140.1 99.27,-134.08 93.61,-129.96"/>
</g>
</g>
</svg>
